<svg width="95.99999999999999" height="16" xmlns="http://www.w3.org/2000/svg">
 <g>
  <title>background</title>
  <rect fill="none" id="canvas_background" height="4.000002" width="14.000012" y="-1" x="-1"/>
 </g>

 <g>
  <title>Layer 1</title>
  <g id="svg_5">
   <path id="svg_6" d="m24,2c1.1,0 2,0.9 2,2l0,1c0,1.1 -0.9,2 -2,2s-2,-0.9 -2,-2l0,-1c0,-1.1 0.9,-2 2,-2m0,-2c-2.2,0 -4,1.8 -4,4l0,1c0,2.2 1.8,4 4,4s4,-1.8 4,-4l0,-1c0,-2.2 -1.8,-4 -4,-4l0,0z" fill="#585c64"/>
   <path id="svg_7" d="m25,12c1.5,0 2.8,0.8 3.5,2l-8.9,0c0.7,-1.2 2,-2 3.5,-2l1.9,0m0,-2l-2,0c-3.3,0 -6,2.7 -6,6l0,0l14,0l0,0c0,-3.3 -2.7,-6 -6,-6l0,0z" fill="#585c64"/>
  </g>
  <g id="svg_15">
   <path id="svg_16" d="m90,14l-4,0c0,1.1 0.9,2 2,2s2,-0.9 2,-2z" fill="#585c64"/>
   <path id="svg_17" d="m95,11l-0.5,0c-0.7,-0.7 -1.5,-1.7 -1.5,-3l0,-3c0,-2.8 -2.2,-5 -5,-5s-5,2.2 -5,5l0,3c0,1.3 -0.8,2.3 -1.5,3l-0.5,0c-0.6,0 -1,0.4 -1,1s0.4,1 1,1l14,0c0.6,0 1,-0.4 1,-1s-0.4,-1 -1,-1z" fill="#585c64"/>
  </g>
  <path id="svg_11" d="m44.05602,2.50659c-1.15696,-0.89467 -2.40479,-1.61136 -3.42841,-1.70907c-0.05572,-0.00634 -0.11344,-0.01004 -0.17447,-0.01109l-6.73674,0c-0.10747,0 -0.21361,0.03327 -0.28924,0.09506c-0.07496,0.06021 -0.11941,0.14471 -0.11941,0.23079l0,13.59967c0,0.08556 0.04179,0.16742 0.11941,0.22975c0.07762,0.06127 0.17978,0.09454 0.28924,0.09454l12.18252,0c0.10747,0 0.2103,-0.03275 0.28791,-0.09454c0.07762,-0.06179 0.12074,-0.14365 0.12074,-0.22975l0,-9.04971c-0.02388,-1.05047 -1.05745,-2.19601 -2.25155,-3.15565zm1.43293,11.87845l-11.36523,0l0,-12.94899l6.33008,0l0,0.00106c0.27597,-0.01321 0.51413,0.20386 0.69656,0.70031c0.16585,0.47269 0.20764,1.08903 0.20698,1.5163c0.00133,0.31319 -0.01791,0.52339 -0.01791,0.52339l-0.03251,0.34435l0.43518,0.00369c0.00199,0 1.0057,0.0095 1.99018,0.18749c0.946,0.16267 1.68568,0.48695 1.75467,0.854c0.00265,0.03275 0.00332,0.06549 0.00265,0.09612l0,8.72227l-0.00066,0l0.00001,-0.00001l0,0.00002z" fill-opacity="null" stroke-opacity="null" fill="none" stroke="#585c64"/>
  <line fill="none" stroke="#585c64" stroke-width="1.5" stroke-opacity="null" fill-opacity="null" x1="35.93751" y1="7.35" x2="41.9375" y2="7.35" id="svg_8" stroke-linejoin="null" stroke-linecap="null"/>
  <line fill="none" stroke-width="1.5" stroke-opacity="null" fill-opacity="null" x1="36.06251" y1="9.85" x2="43.3125" y2="9.85" id="svg_10" stroke-linejoin="null" stroke-linecap="null" stroke="#585c64"/>
  <path fill="none" stroke="#585c64" stroke-opacity="null" fill-opacity="null" d="m9.24931,10.57087l-0.43423,-1.49521c0.12726,-0.10982 0.2467,-0.22733 0.35944,-0.35307l1.51869,0.4272c0.16019,-0.22952 0.29805,-0.47333 0.42139,-0.72646l-1.13023,-1.07624c0.05414,-0.15814 0.10102,-0.31903 0.13451,-0.48486l1.52316,-0.37559c0.01116,-0.13837 0.02177,-0.2773 0.02177,-0.41897s-0.01116,-0.28004 -0.02177,-0.41842l-1.52316,-0.37559c-0.03405,-0.16583 -0.08093,-0.32672 -0.13451,-0.48486l1.13079,-1.07624c-0.12391,-0.25259 -0.26177,-0.49694 -0.42195,-0.72646l-1.51869,0.42665c-0.11219,-0.1252 -0.23219,-0.2427 -0.35944,-0.35307l0.43423,-1.49466c-0.2333,-0.15704 -0.48167,-0.29322 -0.73898,-0.41457l-1.09395,1.11248c-0.16019,-0.05326 -0.32428,-0.09884 -0.49284,-0.13233l-0.38121,-1.49905c-0.14121,-0.01043 -0.28186,-0.02142 -0.42586,-0.02142s-0.28465,0.01098 -0.4253,0.02142l-0.38177,1.49905c-0.16856,0.0335 -0.33209,0.07907 -0.49284,0.13233l-1.09395,-1.11248c-0.25674,0.123 -0.50456,0.25863 -0.73786,0.41622l0.43423,1.49466c-0.12726,0.10982 -0.24726,0.22788 -0.35888,0.35252l-1.51925,-0.4272c-0.16019,0.22952 -0.29805,0.47388 -0.42139,0.72701l1.13079,1.07624c-0.05358,0.15814 -0.10046,0.31903 -0.13451,0.48486l-1.52372,0.37559c-0.0106,0.13837 -0.02177,0.2773 -0.02177,0.41842s0.01116,0.28004 0.02177,0.41897l1.52372,0.37559c0.03405,0.16583 0.08093,0.32672 0.13451,0.48486l-1.13079,1.07624c0.12335,0.25259 0.26121,0.49694 0.42139,0.72646l1.51925,-0.4272c0.11163,0.12574 0.23163,0.2427 0.35888,0.35307l-0.43423,1.49521c0.2333,0.15704 0.48167,0.29267 0.73842,0.41457l1.09395,-1.11248c0.16074,0.05326 0.32428,0.09939 0.49284,0.13233l0.38177,1.4985c0.14065,0.01098 0.28186,0.02142 0.42586,0.02142s0.28465,-0.01098 0.42586,-0.02142l0.38121,-1.4985c0.16856,-0.0335 0.33265,-0.07962 0.49284,-0.13233l1.09395,1.11248c0.25619,-0.123 0.50456,-0.25863 0.73786,-0.41567zm-3.13227,-2.63624c-1.04763,0 -1.89711,-0.83573 -1.89711,-1.8664s0.84949,-1.86585 1.89711,-1.86585s1.89655,0.83519 1.89655,1.86585s-0.84893,1.8664 -1.89655,1.8664zm8.64668,3.90137c0.0106,-0.30036 -0.03349,-0.60621 -0.12837,-0.90822l0.69432,-0.97356c-0.10493,-0.19219 -0.22326,-0.37449 -0.35777,-0.54032l-1.18437,0.24435c-0.23888,-0.19987 -0.5107,-0.35582 -0.80149,-0.46729l-0.34102,-1.14158c-0.21544,-0.03734 -0.43367,-0.05766 -0.6547,-0.0582l-0.54363,1.06306c-0.15572,0.02965 -0.31144,0.07029 -0.46437,0.12794c-0.14344,0.05381 -0.27739,0.1208 -0.40577,0.19383l-1.11963,-0.44972c-0.16577,0.14386 -0.31702,0.29926 -0.45377,0.46784l0.50623,1.08063c-0.14456,0.27181 -0.24391,0.56448 -0.28967,0.87033l-1.05544,0.58205c0.0106,0.21305 0.04242,0.4261 0.09153,0.6397l1.17432,0.28498c0.12893,0.28773 0.30195,0.54526 0.51125,0.7649l-0.19646,1.17398c0.1786,0.12629 0.36837,0.23502 0.56539,0.32946l0.95721,-0.72482c0.29916,0.07742 0.61228,0.10708 0.92763,0.08237l0.81042,0.88241c0.11163,-0.0313 0.2227,-0.06479 0.33265,-0.10598c0.09767,-0.03624 0.18977,-0.07907 0.28186,-0.12245l0.02065,-1.18881c0.25395,-0.18615 0.47051,-0.41018 0.64298,-0.66222l1.20614,-0.07358c0.08484,-0.19713 0.15572,-0.40194 0.20539,-0.61225l-0.93153,-0.75886l0.00002,0.00003zm-2.32353,1.10205c-0.67032,0.25149 -1.42046,-0.07907 -1.67665,-0.73854s0.07981,-1.39802 0.75014,-1.65005c0.67032,-0.25149 1.42158,0.07907 1.67776,0.73854c0.25563,0.65947 -0.08093,1.39802 -0.75125,1.65005z" id="svg_19"/>
  <path stroke="#585c64" fill="none" stroke-width="null" stroke-opacity="null" fill-opacity="null" d="m75.02135,9.37017c0.51942,-0.87875 0.82405,-1.90683 0.82458,-3.00929c-0.00054,-3.21579 -2.53867,-5.82041 -5.67145,-5.82151c-3.13331,0.00111 -5.67253,2.60572 -5.67253,5.82096c0,3.21357 2.53922,5.81818 5.67253,5.81818c1.0751,0 2.07716,-0.31253 2.93366,-0.84544l3.85671,3.95632l1.91213,-1.96345l-3.85563,-3.95577zm-9.85566,-3.00985c0.00324,-1.98843 1.4468,-5.10493 4.38327,-5.28799c2.93647,-0.18306 5.82457,2.42567 5.63327,5.03799c-0.1913,2.61232 -1.38321,5.04132 -4.57077,5.34938c-3.18756,0.30806 -5.44253,-3.11206 -5.44577,-5.09938z" id="svg_1"/>
  <g stroke="null" id="svg_12">
   <path stroke="null" id="svg_4" d="m70.185724,3.011661c0.505804,0 0.919644,0.41384 0.919644,0.919644l0,0.459822c0,0.505804 -0.41384,0.919644 -0.919644,0.919644s-0.919644,-0.41384 -0.919644,-0.919644l0,-0.459822c0,-0.505804 0.41384,-0.919644 0.919644,-0.919644m0,-0.919644c-1.011608,0 -1.839288,0.827679 -1.839288,1.839288l0,0.459822c0,1.011608 0.827679,1.839288 1.839288,1.839288s1.839288,-0.827679 1.839288,-1.839288l0,-0.459822c0,-1.011608 -0.827679,-1.839288 -1.839288,-1.839288l0,0z" fill="#585c64"/>
   <path stroke="null" id="svg_9" d="m70.645546,7.60988c0.689733,0 1.287501,0.367858 1.609377,0.919644l-4.092415,0c0.321875,-0.551786 0.919644,-0.919644 1.609377,-0.919644l0.873662,0m0,-0.919644l-0.919644,0c-1.517412,0 -2.758931,1.241519 -2.758931,2.758931l0,0l6.437507,0l0,0c0,-1.517412 -1.241519,-2.758931 -2.758931,-2.758931l0,0z" fill="#585c64"/>
  </g>
  <path id="svg_13" d="m48.760566,2.462807l0,0c0,-0.820238 0.70859,-1.485173 1.58268,-1.485173l0.719401,0l0,0l3.453122,0l6.474602,0c0.419754,0 0.822315,0.156473 1.119126,0.434997c0.296809,0.278524 0.463556,0.656284 0.463556,1.050176l0,3.712933l0,0l0,2.227759l0,0c0,0.820239 -0.70859,1.485173 -1.582681,1.485173l-6.474602,0l-4.511078,3.77645l1.057956,-3.77645l-0.719401,0c-0.87409,0 -1.58268,-0.664934 -1.58268,-1.485173l0,0l0,-2.227759l0,0l0,-3.712933z" fill-opacity="null" stroke-opacity="null" stroke-width="1.5" stroke="#585c64" fill="none"/>
 </g>
</svg>